<svg width="20" height="20" viewBox="0 0 20 20" fill="none" xmlns="http://www.w3.org/2000/svg">
<path d="M18.0208 17.1167L13.7242 12.6642C15.7283 9.99418 15.5517 6.13543 13.1837 3.68168C11.9012 2.35251 10.22 1.68793 8.53916 1.68793C6.85833 1.68793 5.17708 2.35251 3.89458 3.68168C1.32958 6.34001 1.32958 10.6496 3.89458 13.3075C5.17708 14.6367 6.85833 15.3013 8.53916 15.3013C9.96208 15.3013 11.3821 14.8196 12.5629 13.8675L16.8596 18.32L18.0208 17.1167ZM5.05583 12.1042C3.13499 10.1138 3.13499 6.87543 5.05583 4.88501C5.98624 3.92084 7.22333 3.38959 8.53916 3.38959C9.85499 3.38959 11.0921 3.92084 12.0225 4.88501C13.9433 6.87543 13.9433 10.1138 12.0225 12.1042C11.0921 13.0683 9.85499 13.5996 8.53916 13.5996C7.22333 13.5996 5.98624 13.0683 5.05583 12.1042Z" fill="#999999"/>
</svg>
